<mxfile host="app.diagrams.net" modified="2021-02-07T19:42:53.557Z" agent="5.0 (Windows)" etag="cmEL-vyK5kPNUmqulSUI" version="14.2.9" type="github">
  <diagram id="llSxckVfcnOthQQedZlP" name="Page-1">
    <mxGraphModel dx="1220" dy="1122" grid="1" gridSize="10" guides="1" tooltips="1" connect="1" arrows="1" fold="1" page="1" pageScale="1" pageWidth="850" pageHeight="1100" math="0" shadow="0">
      <root>
        <mxCell id="0" />
        <mxCell id="1" parent="0" />
        <mxCell id="05Escn_wLPkdDg-ysazH-5" value="" style="edgeStyle=orthogonalEdgeStyle;rounded=0;orthogonalLoop=1;jettySize=auto;html=1;" edge="1" parent="1" source="05Escn_wLPkdDg-ysazH-2" target="05Escn_wLPkdDg-ysazH-4">
          <mxGeometry relative="1" as="geometry" />
        </mxCell>
        <mxCell id="05Escn_wLPkdDg-ysazH-2" value="START" style="ellipse;whiteSpace=wrap;html=1;" vertex="1" parent="1">
          <mxGeometry x="365" y="150" width="120" height="80" as="geometry" />
        </mxCell>
        <mxCell id="05Escn_wLPkdDg-ysazH-3" value="Opgave b" style="text;html=1;align=center;verticalAlign=middle;resizable=0;points=[];autosize=1;" vertex="1" parent="1">
          <mxGeometry x="390" y="70" width="70" height="20" as="geometry" />
        </mxCell>
        <mxCell id="05Escn_wLPkdDg-ysazH-7" value="" style="edgeStyle=orthogonalEdgeStyle;rounded=0;orthogonalLoop=1;jettySize=auto;html=1;" edge="1" parent="1" source="05Escn_wLPkdDg-ysazH-4" target="05Escn_wLPkdDg-ysazH-6">
          <mxGeometry relative="1" as="geometry" />
        </mxCell>
        <mxCell id="05Escn_wLPkdDg-ysazH-4" value="X &amp;lt;- (-11);" style="whiteSpace=wrap;html=1;" vertex="1" parent="1">
          <mxGeometry x="365" y="320" width="120" height="60" as="geometry" />
        </mxCell>
        <mxCell id="05Escn_wLPkdDg-ysazH-9" value="" style="edgeStyle=orthogonalEdgeStyle;rounded=0;orthogonalLoop=1;jettySize=auto;html=1;" edge="1" parent="1" source="05Escn_wLPkdDg-ysazH-6" target="05Escn_wLPkdDg-ysazH-8">
          <mxGeometry relative="1" as="geometry" />
        </mxCell>
        <mxCell id="05Escn_wLPkdDg-ysazH-6" value="Y = 10" style="whiteSpace=wrap;html=1;" vertex="1" parent="1">
          <mxGeometry x="365" y="460" width="120" height="60" as="geometry" />
        </mxCell>
        <mxCell id="05Escn_wLPkdDg-ysazH-11" value="" style="edgeStyle=orthogonalEdgeStyle;rounded=0;orthogonalLoop=1;jettySize=auto;html=1;" edge="1" parent="1" source="05Escn_wLPkdDg-ysazH-8" target="05Escn_wLPkdDg-ysazH-10">
          <mxGeometry relative="1" as="geometry" />
        </mxCell>
        <mxCell id="05Escn_wLPkdDg-ysazH-8" value="Z = 10^2" style="whiteSpace=wrap;html=1;" vertex="1" parent="1">
          <mxGeometry x="365" y="600" width="120" height="60" as="geometry" />
        </mxCell>
        <mxCell id="05Escn_wLPkdDg-ysazH-13" value="" style="edgeStyle=orthogonalEdgeStyle;rounded=0;orthogonalLoop=1;jettySize=auto;html=1;" edge="1" parent="1" source="05Escn_wLPkdDg-ysazH-10" target="05Escn_wLPkdDg-ysazH-12">
          <mxGeometry relative="1" as="geometry" />
        </mxCell>
        <mxCell id="05Escn_wLPkdDg-ysazH-10" value="maxVaerdi = 0" style="whiteSpace=wrap;html=1;" vertex="1" parent="1">
          <mxGeometry x="365" y="740" width="120" height="60" as="geometry" />
        </mxCell>
        <mxCell id="05Escn_wLPkdDg-ysazH-15" value="" style="edgeStyle=orthogonalEdgeStyle;rounded=0;orthogonalLoop=1;jettySize=auto;html=1;" edge="1" parent="1" source="05Escn_wLPkdDg-ysazH-12" target="05Escn_wLPkdDg-ysazH-14">
          <mxGeometry relative="1" as="geometry" />
        </mxCell>
        <mxCell id="05Escn_wLPkdDg-ysazH-16" value="Yes" style="edgeLabel;html=1;align=center;verticalAlign=middle;resizable=0;points=[];" vertex="1" connectable="0" parent="05Escn_wLPkdDg-ysazH-15">
          <mxGeometry x="-0.1704" y="1" relative="1" as="geometry">
            <mxPoint as="offset" />
          </mxGeometry>
        </mxCell>
        <mxCell id="05Escn_wLPkdDg-ysazH-37" value="" style="edgeStyle=orthogonalEdgeStyle;rounded=0;orthogonalLoop=1;jettySize=auto;html=1;" edge="1" parent="1" source="05Escn_wLPkdDg-ysazH-12" target="05Escn_wLPkdDg-ysazH-17">
          <mxGeometry relative="1" as="geometry" />
        </mxCell>
        <mxCell id="05Escn_wLPkdDg-ysazH-43" value="No" style="edgeLabel;html=1;align=center;verticalAlign=middle;resizable=0;points=[];" vertex="1" connectable="0" parent="05Escn_wLPkdDg-ysazH-37">
          <mxGeometry x="-0.1619" relative="1" as="geometry">
            <mxPoint as="offset" />
          </mxGeometry>
        </mxCell>
        <mxCell id="05Escn_wLPkdDg-ysazH-12" value="X &amp;gt; Y?" style="rhombus;whiteSpace=wrap;html=1;" vertex="1" parent="1">
          <mxGeometry x="385" y="870" width="80" height="80" as="geometry" />
        </mxCell>
        <mxCell id="05Escn_wLPkdDg-ysazH-41" style="edgeStyle=orthogonalEdgeStyle;rounded=0;orthogonalLoop=1;jettySize=auto;html=1;entryX=0.5;entryY=0;entryDx=0;entryDy=0;" edge="1" parent="1" source="05Escn_wLPkdDg-ysazH-14" target="05Escn_wLPkdDg-ysazH-19">
          <mxGeometry relative="1" as="geometry">
            <mxPoint x="430" y="980" as="targetPoint" />
            <Array as="points">
              <mxPoint x="660" y="980" />
              <mxPoint x="425" y="980" />
            </Array>
          </mxGeometry>
        </mxCell>
        <mxCell id="05Escn_wLPkdDg-ysazH-14" value="maxVaerdi = X" style="whiteSpace=wrap;html=1;" vertex="1" parent="1">
          <mxGeometry x="600" y="880" width="120" height="60" as="geometry" />
        </mxCell>
        <mxCell id="05Escn_wLPkdDg-ysazH-42" style="edgeStyle=orthogonalEdgeStyle;rounded=0;orthogonalLoop=1;jettySize=auto;html=1;entryX=0.5;entryY=0;entryDx=0;entryDy=0;" edge="1" parent="1" source="05Escn_wLPkdDg-ysazH-17" target="05Escn_wLPkdDg-ysazH-19">
          <mxGeometry relative="1" as="geometry">
            <mxPoint x="420" y="980" as="targetPoint" />
            <Array as="points">
              <mxPoint x="220" y="980" />
              <mxPoint x="425" y="980" />
            </Array>
          </mxGeometry>
        </mxCell>
        <mxCell id="05Escn_wLPkdDg-ysazH-17" value="maxVaerdi = Y" style="whiteSpace=wrap;html=1;" vertex="1" parent="1">
          <mxGeometry x="160" y="880" width="120" height="60" as="geometry" />
        </mxCell>
        <mxCell id="05Escn_wLPkdDg-ysazH-26" value="Yes" style="edgeStyle=orthogonalEdgeStyle;rounded=0;orthogonalLoop=1;jettySize=auto;html=1;" edge="1" parent="1" source="05Escn_wLPkdDg-ysazH-19" target="05Escn_wLPkdDg-ysazH-21">
          <mxGeometry relative="1" as="geometry" />
        </mxCell>
        <mxCell id="05Escn_wLPkdDg-ysazH-44" value="" style="edgeStyle=orthogonalEdgeStyle;rounded=0;orthogonalLoop=1;jettySize=auto;html=1;" edge="1" parent="1" source="05Escn_wLPkdDg-ysazH-19" target="05Escn_wLPkdDg-ysazH-33">
          <mxGeometry relative="1" as="geometry" />
        </mxCell>
        <mxCell id="05Escn_wLPkdDg-ysazH-19" value="&lt;div&gt;Z &amp;gt; maxVaerdi?&lt;/div&gt;" style="rhombus;whiteSpace=wrap;html=1;" vertex="1" parent="1">
          <mxGeometry x="372.5" y="1040" width="105" height="120" as="geometry" />
        </mxCell>
        <mxCell id="05Escn_wLPkdDg-ysazH-45" style="edgeStyle=orthogonalEdgeStyle;rounded=0;orthogonalLoop=1;jettySize=auto;html=1;entryX=0.5;entryY=0;entryDx=0;entryDy=0;entryPerimeter=0;" edge="1" parent="1" source="05Escn_wLPkdDg-ysazH-21" target="05Escn_wLPkdDg-ysazH-33">
          <mxGeometry relative="1" as="geometry">
            <Array as="points">
              <mxPoint x="660" y="1190" />
              <mxPoint x="425" y="1190" />
            </Array>
          </mxGeometry>
        </mxCell>
        <mxCell id="05Escn_wLPkdDg-ysazH-21" value="maxVaerdi = Z" style="whiteSpace=wrap;html=1;" vertex="1" parent="1">
          <mxGeometry x="600" y="1070" width="120" height="60" as="geometry" />
        </mxCell>
        <mxCell id="05Escn_wLPkdDg-ysazH-48" value="" style="edgeStyle=orthogonalEdgeStyle;rounded=0;orthogonalLoop=1;jettySize=auto;html=1;" edge="1" parent="1" source="05Escn_wLPkdDg-ysazH-33" target="05Escn_wLPkdDg-ysazH-47">
          <mxGeometry relative="1" as="geometry" />
        </mxCell>
        <mxCell id="05Escn_wLPkdDg-ysazH-33" value="&lt;div&gt;Det stÃ¸rste tal er:&lt;/div&gt;&lt;div&gt;maxVaerdi&lt;br&gt;&lt;/div&gt;" style="strokeWidth=2;html=1;shape=mxgraph.flowchart.display;whiteSpace=wrap;" vertex="1" parent="1">
          <mxGeometry x="345" y="1240" width="160" height="90" as="geometry" />
        </mxCell>
        <mxCell id="05Escn_wLPkdDg-ysazH-46" value="START" style="ellipse;whiteSpace=wrap;html=1;" vertex="1" parent="1">
          <mxGeometry x="365" y="150" width="120" height="80" as="geometry" />
        </mxCell>
        <mxCell id="05Escn_wLPkdDg-ysazH-47" value="SLUT" style="ellipse;whiteSpace=wrap;html=1;strokeWidth=2;" vertex="1" parent="1">
          <mxGeometry x="365" y="1415" width="120" height="80" as="geometry" />
        </mxCell>
      </root>
    </mxGraphModel>
  </diagram>
</mxfile>
